# xmcd
#
# Track frame offsets:
#   150
#   13945
#   27743
#   41982
#   56399
#   70434
#   83854
#   97483
#   111426
#   124411
#   137546
#   151280
#   164954
#   179552
#   193914
#   207588
#   220472
#   233329
#   246821
#   260322
#   274203
#   289113
#   302875
#   316672
#   330522
#
# Disc length: 4722 seconds
#
# Revision: 0
# Processed by: cddbd v1.5.2PL0 Copyright (c) Steve Scherf et al.
# Submitted via: GXTranscoder 2.0.1939
#
DISCID=90127019
DTITLE=Eurovision Songcontest - Eurovision Songcontest 2005
DYEAR=2005
DGENRE=mixed
TTITLE0=Nox - Forogj Vilag (HUN)
TTITLE1=Javine - Touch my Fire (GB)
TTITLE2=Chiara - Angel (MAL)
TTITLE3=Luminita Anghel and Sistern - Let my Try (ROM)
TTITLE4=Wig Wam - In my Dreams (NOR)
TTITLE5=Gülseren - Rimi Rimi Ley (TUR)
TTITLE6=Zdob si Zdub - Boonika Bate Toba (MOL)
TTITLE7=Ledina Celo - Tomorrow I go (ALB)
TTITLE8=Constantinos Christoforou - Ela Ela (CYP)
TTITLE9=Son de Sol - Brujeria - (ESP)
TTITLE10=Shiri Maymon - Hasheket Shenish'ar (ISR)
TTITLE11=No Name - Zauvijek Moja (SRB&MOT)
TTITLE12=Jakob Sveistrup - Taender Pa Dig (DK)
TTITLE13=Martin Stenmark - Las Vegas (SWE)
TTITLE14=Martin Vucic - Make my Day (MAD)
TTITLE15=Greenjolly - Razom nas Bahato (UKR)
TTITLE16=Gracia - Run and Hide (GER)
TTITLE17=Boris Novkovic feat. Lado Members - Vukovi Umori S
TTITLE18=Helena Paparizou - My Number One (GRE)
TTITLE19=Natalia Podolskaya - Nobody hurt no one (RUS)
TTITLE20=Feminnem - Call me (BOZ&HEZ)
TTITLE21=Vanilla Ninja - Cool Vibes (CH)
TTITLE22=Walters and Kazha - The war is not over (LET)
TTITLE23=Ortal - Chacun Pense a Sol (FRA)
TTITLE24=?
EXTD=
EXTT0=
EXTT1=
EXTT2=
EXTT3=
EXTT4=
EXTT5=
EXTT6=
EXTT7=
EXTT8=
EXTT9=
EXTT10=
EXTT11=
EXTT12=
EXTT13=
EXTT14=
EXTT15=
EXTT16=
EXTT17=
EXTT18=
EXTT19=
EXTT20=
EXTT21=
EXTT22=
EXTT23=
EXTT24=
PLAYORDER=
